<svg width="10" height="14" viewBox="0 0 10 14" xmlns="http://www.w3.org/2000/svg" class="bgui-u-self-center"><path data-testid="chevronRight" d="M9.16728 6.99999C9.16751 7.18213 9.12888 7.36222 9.05398 7.52825C8.97908 7.69428 8.86963 7.84242 8.73294 7.96279L2.52296 13.426C2.31717 13.5987 2.052 13.684 1.78414 13.6637C1.51627 13.6434 1.26698 13.5191 1.08956 13.3174C0.91215 13.1157 0.820695 12.8526 0.834754 12.5843C0.848814 12.3161 0.967273 12.0639 1.1648 11.8819L6.59519 7.10468C6.6101 7.09162 6.62204 7.07552 6.63023 7.05746C6.63841 7.03941 6.64264 7.01982 6.64264 6.99999C6.64264 6.98017 6.63841 6.96058 6.63023 6.94252C6.62204 6.92447 6.6101 6.90837 6.59519 6.89531L1.1648 2.1181C0.967273 1.93604 0.848814 1.68392 0.834754 1.41566C0.820695 1.1474 0.91215 0.884279 1.08956 0.682569C1.26698 0.480859 1.51627 0.356567 1.78414 0.33627C2.052 0.315973 2.31717 0.401283 2.52296 0.573956L8.73071 6.03553C8.86774 6.15611 8.97754 6.30448 9.05282 6.47077C9.12809 6.63706 9.16711 6.81746 9.16728 6.99999Z" fill="#676767"></path></svg>